<svg width="1em" height="1em" viewBox="0 0 24 24" xmlns="http://www.w3.org/2000/svg" fill="currentColor"><path d="M21.99 21.386l-1.368-7.889h.462a.67.67 0 0 0 .671-.671V7.869a.67.67 0 0 0-.671-.671h-6.349V2.5a.669.669 0 0 0-.67-.671h-4.13a.669.669 0 0 0-.67.671v4.698H2.916a.67.67 0 0 0-.671.671v4.957c0 .371.3.671.671.671h.462L2.01 21.386a.67.67 0 0 0 .661.784h18.658a.668.668 0 0 0 .661-.784zM4.052 9.005h7.019V3.636h1.858v5.369h7.019v2.685H4.052V9.005zm12.077 11.358v-4.026a.207.207 0 0 0-.206-.207h-1.239a.207.207 0 0 0-.207.207v4.026H9.523v-4.026a.207.207 0 0 0-.207-.207H8.077a.207.207 0 0 0-.206.207v4.026h-3.85l1.164-6.711h13.628l1.164 6.711h-3.848z"/></svg>