<svg width="1em" height="1em" viewBox="0 0 24 24" xmlns="http://www.w3.org/2000/svg" fill="currentColor" overflow="hidden"><path d="M5.504 4.627l-.003 2.122v10.502A3.25 3.25 0 0 0 8.75 20.5h8.615a2.252 2.252 0 0 1-2.122 1.5H8.75a4.749 4.749 0 0 1-4.749-4.749V6.749a2.25 2.25 0 0 1 1.503-2.122zM17.749 2a2.25 2.25 0 0 1 2.249 2.249v12.998a2.25 2.25 0 0 1-2.249 2.25H8.75a2.25 2.25 0 0 1-2.249-2.25V4.249A2.25 2.25 0 0 1 8.75 2h8.999zm0 1.5H8.75a.75.75 0 0 0-.75.749v12.998c0 .414.336.75.75.75h8.999a.75.75 0 0 0 .749-.75V4.249a.75.75 0 0 0-.749-.749z"/></svg>