<svg width="16" height="16" viewBox="0 0 1024 1024" xmlns="http://www.w3.org/2000/svg" fill="currentColor" overflow="hidden"><path d="M234.795 197.419L234.667 288v448.17a138.667 138.667 0 0 0 138.666 138.667H740.95a96.043 96.043 0 0 1-90.538 64H373.333a202.667 202.667 0 0 1-202.666-202.666V288c0-41.813 26.752-77.44 64.128-90.581zM757.333 85.333a96 96 0 0 1 96 96V736a96 96 0 0 1-96 96h-384a96 96 0 0 1-96-96V181.333a96 96 0 0 1 96-96h384zm0 64h-384a32 32 0 0 0-32 32V736c0 17.664 14.336 32 32 32h384a32 32 0 0 0 32-32V181.333a32 32 0 0 0-32-32z"/></svg>