<svg width="1em" height="1em" viewBox="0 0 1024 1024" xmlns="http://www.w3.org/2000/svg" fill="currentColor" overflow="hidden"><path d="M512 247.467c213.333 0 362.667 187.733 413.867 264.533-51.2 81.067-200.534 264.533-413.867 264.533S149.333 588.8 98.133 512c51.2-81.067 200.534-264.533 413.867-264.533m0-76.8C187.733 170.667 0 512 0 512s187.733 341.333 512 341.333S1024 512 1024 512 836.267 170.667 512 170.667zm0 512c-93.867 0-170.667-76.8-170.667-170.667S418.133 341.333 512 341.333 682.667 418.133 682.667 512 605.867 682.667 512 682.667zm0-256c-46.933 0-85.333 38.4-85.333 85.333s38.4 85.333 85.333 85.333 85.333-38.4 85.333-85.333-38.4-85.333-85.333-85.333z"/></svg>