<svg width="1em" height="1em" viewBox="0 0 24 24" xmlns="http://www.w3.org/2000/svg" fill="currentColor" overflow="hidden"><path d="M12 6.316c4.583 0 7.792 4.033 8.892 5.683-1.1 1.742-4.309 5.684-8.892 5.684-4.583 0-7.792-4.034-8.892-5.684 1.1-1.741 4.309-5.683 8.892-5.683m0-1.65c-6.967 0-11 7.333-11 7.333s4.033 7.334 11 7.334 11-7.334 11-7.334-4.033-7.333-11-7.333zm0 11a3.678 3.678 0 0 1-3.667-3.667A3.677 3.677 0 0 1 12 8.333a3.677 3.677 0 0 1 3.667 3.666A3.678 3.678 0 0 1 12 15.666zm0-5.5a1.839 1.839 0 0 0-1.833 1.833c0 1.009.825 1.834 1.833 1.834a1.839 1.839 0 0 0 1.833-1.834A1.839 1.839 0 0 0 12 10.166z"/></svg>