<svg width="1em" height="1em" viewBox="0 0 1081 1024" xmlns="http://www.w3.org/2000/svg" fill="currentColor" overflow="hidden"><path d="M31.528 910.922l76.069 76.508c38.473 38.907 82.627 36.284 124.158-9.62l478.718-527.68-43.281-43.716-475.217 522.872c-15.74 17.925-30.603 22.294-51.59 1.311L87.92 878.573c-20.982-20.548-16.174-35.85 1.75-52.029l513.691-483.521-43.72-43.282L40.705 787.193c-44.154 41.097-47.65 84.817-9.177 123.724zM318.757 96.447c-18.803 18.364-20.11 44.159-9.621 61.645 10.494 16.175 31.042 26.668 59.9 19.237 65.575-15.302 133.774-17.925 197.603 24.045l-26.23 65.136c-15.3 37.166-7.435 63.391 16.614 87.88L659.76 458c21.86 21.86 40.22 22.732 65.576 18.363l47.655-8.743 29.726 30.164-1.746 24.918c-1.75 22.299 3.935 39.346 25.79 60.772l34.104 33.222c21.422 21.426 48.963 22.737 69.95 1.75l130.278-130.717c20.987-20.987 20.11-47.655-1.312-69.076l-34.538-34.1c-21.421-21.42-38.035-28.418-59.456-26.667l-25.795 2.184-28.853-28.414 10.928-50.274c5.686-25.36-1.307-45.036-27.541-71.265l-98.368-97.93C646.643-36.453 448.162-32.957 318.757 96.453zm66.887 16.614c108.861-79.566 256.191-66.015 355.866 33.665L850.372 254.71c10.493 10.493 12.24 18.802 9.182 34.1l-14.429 66.452 67.326 66.453 44.154-2.623c11.367-.439 14.868.439 23.61 9.177l25.791 25.795L896.711 563.36l-25.791-25.79c-8.743-8.744-10.055-12.245-9.62-24.045l3.062-43.72-66.892-66.453-68.2 11.37c-14.428 3.058-20.982 1.746-31.914-8.747l-89.62-89.625c-11.367-10.489-12.678-17.92-5.686-34.534l39.347-93.56c-69.95-65.136-160.882-93.116-251.818-66.448-6.993 1.746-9.616-3.94-3.935-8.747z"/></svg>