<svg width="1em" height="1em" viewBox="0 0 24 24" xmlns="http://www.w3.org/2000/svg" fill="currentColor" overflow="hidden"><path d="M.963 20.704l1.683 1.681c.869.878 1.895.822 2.829-.204l9.791-10.808c.26.074.526.055.842 0l.924-.176.546.555-.047.49c-.037.49.111.897.592 1.369l.73.711c.508.509 1.165.537 1.656.048l2.783-2.792c.489-.501.471-1.139-.039-1.648l-.73-.729c-.47-.472-.868-.64-1.349-.602l-.51.046-.525-.518.213-.97c.138-.62-.029-1.083-.656-1.711L17.67 3.431C14.472.242 10.087.261 7.269 3.079a1.147 1.147 0 0 0-.213 1.406c.239.397.73.655 1.395.49 1.396-.333 2.784-.36 4.058.462l-.517 1.295c-.183.443-.221.822-.128 1.165L1.157 17.873c-1 .915-1.073 1.942-.194 2.831zM9.006 3.487c2.256-1.544 5.26-1.203 7.295.832l2.256 2.246c.232.221.269.408.204.73l-.278 1.379 1.488 1.488.926-.056c.221-.009.295.01.462.176l.463.462-2.165 2.164-.462-.463c-.166-.167-.194-.24-.184-.471l.056-.915-1.48-1.489-1.416.24c-.304.056-.462.037-.694-.195l-1.782-1.773c-.241-.232-.277-.408-.138-.749l.83-1.989c-1.478-1.415-3.41-1.978-5.305-1.452-.129.029-.185-.082-.075-.165h-.001zM3.467 20.896L2.442 19.88c-.388-.391-.296-.657.028-.963l10.336-9.745 1.22 1.231-9.605 10.475c-.296.324-.573.406-.954.018z"/></svg>