<svg width="1em" height="1em" viewBox="0 0 1024 1024" xmlns="http://www.w3.org/2000/svg" fill="currentColor" overflow="hidden"><path d="M61.895 866.891l68.64 68.597c35.435 35.822 77.262 33.552 115.357-8.323L645.207 486.41c10.554 3.003 21.45 2.273 34.32 0l37.666-7.165 22.265 22.608-1.887 19.993c-1.502 19.991 4.504 36.593 24.153 55.812l29.772 29.044c20.722 20.72 47.491 21.878 67.483 1.887l113.513-113.856c19.95-20.378 19.22-46.418-1.54-67.14l-29.78-29.772c-19.217-19.262-35.433-26.041-55.038-24.54l-20.763 1.889-21.451-21.107 8.666-39.598c5.62-25.267-1.158-44.1-26.769-69.755l-82.583-82.196C612.774 32.482 434.01 33.211 319.038 148.183c-15.81 14.795-19.396 38.508-8.667 57.315 9.781 16.217 29.772 26.769 56.929 19.992 56.928-13.556 113.513-14.715 165.509 18.876l-21.107 52.766c-7.507 18.105-9.009 33.55-5.276 47.491L69.83 751.489c-40.755 37.324-43.758 79.194-7.937 115.402h.002zm328.013-702.104c92.02-62.978 214.542-49.036 297.511 33.934l92.021 91.634c9.439 9.009 10.898 16.602 8.28 29.772l-11.325 56.2 60.703 60.703 37.752-2.273c9.009-.387 12.012.386 18.834 7.164l18.875 18.875-88.288 88.203-18.834-18.875c-6.777-6.778-7.935-9.781-7.549-19.22l2.273-37.322-60.318-60.705-57.7 9.825c-12.442 2.273-18.876 1.501-28.314-7.937l-72.673-72.373c-9.824-9.437-11.326-16.602-5.662-30.545l33.89-81.081c-60.318-57.7-139.082-80.652-216.388-59.202-5.277 1.158-7.551-3.39-3.003-6.777h-.085zM164.083 874.785L122.212 833.3c-15.831-15.873-12.056-26.769 1.158-39.211l421.536-397.427 49.765 50.194-391.764 427.156c-12.055 13.213-23.381 16.603-38.824.773z"/></svg>