<svg height="1em" width="1em" viewBox="0 0 24 24" xmlns="http://www.w3.org/2000/svg" fill="currentColor" overflow="hidden"><path d="M19.273 2H4.727A2.727 2.727 0 0 0 2 4.727v14.546A2.727 2.727 0 0 0 4.727 22h14.546A2.727 2.727 0 0 0 22 19.273V4.727A2.727 2.727 0 0 0 19.273 2zm.909 17.273a.909.909 0 0 1-.909.909H7.831l7.805-7.805 4.546 4.545v2.351zm0-4.922l-4.546-4.546L5.26 20.182h-.533a.909.909 0 0 1-.909-.909V4.727c0-.502.407-.909.909-.909h14.546c.502 0 .909.407.909.909v9.624zM8.364 5.636a2.728 2.728 0 1 0 0 5.455 2.728 2.728 0 0 0 0-5.455zm0 3.637a.91.91 0 1 1-.009-1.818.91.91 0 0 1 .009 1.818z"/></svg>