<svg width="1em" height="1em" viewBox="0 0 24 24" xmlns="http://www.w3.org/2000/svg" fill="currentColor"><path d="M12 2c5.43 0 9.848 4.327 9.996 9.72L22 12v1.525c-.017 3.079-3.362 4.985-6.02 3.43a4.004 4.004 0 0 1-1.395-1.37c-.8.833-1.882 1.348-3.085 1.348-2.515 0-4.5-2.25-4.5-4.966C7 9.25 8.985 7 11.5 7c.937 0 1.8.312 2.514.844a1 1 0 0 1 1.98.04L16 8v5.5c.004 1.54 1.673 2.498 3.004 1.725a2 2 0 0 0 .99-1.575l.006-.175V12c0-6.158-6.667-10.007-12-6.928-5.333 3.079-5.333 10.777 0 13.856a8.002 8.002 0 0 0 6.67.616 1 1 0 1 1 .667 1.886A9.981 9.981 0 0 1 12 22C6.477 22 2 17.523 2 12S6.477 2 12 2zm-.35 7.005L11.5 9C10.15 9 9 10.302 9 11.967c0 1.664 1.15 2.966 2.5 2.966 1.3 0 2.415-1.207 2.495-2.783l.005-.22c-.017-1.586-1.075-2.834-2.35-2.925L11.5 9l.15.005z"/></svg>