<svg width="1em" height="1em" viewBox="0 0 1024 1024" xmlns="http://www.w3.org/2000/svg" fill="currentColor"><path d="M810.667 85.333a128 128 0 0 1 128 128V640a128 128 0 0 1-128 128H597.333L353.92 920.15A64 64 0 0 1 256 865.876V768h-42.667a128 128 0 0 1-128-128V213.333a128 128 0 0 1 128-128h597.334zm0 85.334H213.333a42.667 42.667 0 0 0-42.368 37.674l-.298 4.992V640a42.667 42.667 0 0 0 37.674 42.368l4.992.299h85.334a42.667 42.667 0 0 1 42.666 42.666V827.35l210.774-131.712a85.333 85.333 0 0 1 45.226-12.97h213.334a42.667 42.667 0 0 0 42.368-37.675l.298-4.992V213.333a42.667 42.667 0 0 0-37.674-42.368l-4.992-.298zM512 256a42.667 42.667 0 0 1 42.667 42.667V384H640a42.667 42.667 0 0 1 0 85.333h-85.333v85.334a42.667 42.667 0 0 1-85.334 0v-85.334H384A42.667 42.667 0 0 1 384 384h85.333v-85.333A42.667 42.667 0 0 1 512 256z"/></svg>