<svg width="1em" height="1em" viewBox="0 0 24 24" xmlns="http://www.w3.org/2000/svg" fill="currentColor"><path d="M19 2.102a3 3 0 0 1 3 3v10a3 3 0 0 1-3 3h-5l-5.705 3.566a1.5 1.5 0 0 1-2.294-1.22L6 20.396v-2.294H5a3 3 0 0 1-3-3v-10a3 3 0 0 1 3-3h14zm0 2H5a1 1 0 0 0-.993.883L4 5.102v10a1 1 0 0 0 .883.993l.117.007h2a1 1 0 0 1 1 1v2.391l4.94-3.087a1.997 1.997 0 0 1 1.06-.304h5a1 1 0 0 0 .993-.883l.007-.117v-10a1 1 0 0 0-.883-.993L19 4.102zm-7 2a1 1 0 0 1 1 1v2h2a1 1 0 0 1 0 2h-2v2a1 1 0 1 1-2 0v-2H9a1 1 0 0 1 0-2h2v-2a1 1 0 0 1 1-1z"/></svg>