<svg width="1em" height="1em" viewBox="0 0 1024 1024" xmlns="http://www.w3.org/2000/svg" fill="currentColor" overflow="hidden"><path d="M985.36 87.09L669.268 969.615c-3.77 10.432-13.67 17.372-24.76 17.382h-8.43a26.89 26.89 0 0 1-24.234-15.282l-124.33-263.437c-18.307-38.838-11.221-84.9 17.912-116.439l158.047-172.817c9.701-10.176 9.701-26.177 0-36.354l-20.02-20.021c-10.175-9.701-26.175-9.701-36.351 0L434.305 520.71c-31.536 29.138-77.594 36.224-116.429 17.915L54.465 414.281a26.874 26.874 0 0 1-17.385-24.236v-8.43c-.933-11.855 6.191-22.865 17.385-26.87L936.894 38.618a26.34 26.34 0 0 1 27.394 5.796l13.702 13.699a26.334 26.334 0 0 1 7.37 28.977z"/></svg>