<svg width="1em" height="1em" viewBox="0 0 24 24" xmlns="http://www.w3.org/2000/svg" fill="currentColor" overflow="hidden"><path d="M21.966 3.054l-6.655 18.58a.555.555 0 0 1-.521.366h-.178a.566.566 0 0 1-.51-.322l-2.617-5.546a2.216 2.216 0 0 1 .377-2.451l3.327-3.639a.555.555 0 0 0 0-.765l-.421-.421a.554.554 0 0 0-.766 0l-3.637 3.327a2.217 2.217 0 0 1-2.452.377L2.368 9.943a.567.567 0 0 1-.366-.511v-.177a.554.554 0 0 1 .366-.566l18.577-6.655a.555.555 0 0 1 .577.122l.289.288a.555.555 0 0 1 .155.61z"/></svg>