<svg xmlns="http://www.w3.org/2000/svg" width="1em" height="1em" fill="currentColor" viewBox="0 0 24 24"><path d="M2.833 7.833h3.438c.636 2.486 3.725 3.351 5.56 1.557.436-.427.747-.965.898-1.557h8.438a.833.833 0 0 0 0-1.666h-8.438c-.636-2.486-3.725-3.351-5.56-1.557a3.337 3.337 0 0 0-.898 1.557H2.833a.833.833 0 0 0 0 1.666zm6.667-2.5a1.666 1.666 0 0 1 1.443 2.5A1.665 1.665 0 0 1 7.833 7c0-.92.747-1.667 1.667-1.667zm11.667 10.834h-1.771c-.637-2.486-3.725-3.351-5.56-1.557a3.337 3.337 0 0 0-.898 1.557H2.833a.833.833 0 0 0 0 1.666h10.105c.636 2.486 3.725 3.351 5.559 1.557.437-.427.747-.965.899-1.557h1.771a.833.833 0 0 0 0-1.666zm-5 2.5a1.667 1.667 0 1 1 0-3.334 1.667 1.667 0 0 1 0 3.334z"/></svg>